<?xml version="1.0" encoding="UTF-8" standalone="no"?>
<!-- Generator: Adobe Illustrator 20.1.0, SVG Export Plug-In . SVG Version: 6.00 Build 0)  -->

<svg
   xmlns:dc="http://purl.org/dc/elements/1.1/"
   xmlns:cc="http://creativecommons.org/ns#"
   xmlns:rdf="http://www.w3.org/1999/02/22-rdf-syntax-ns#"
   xmlns:svg="http://www.w3.org/2000/svg"
   xmlns="http://www.w3.org/2000/svg"
   xmlns:sodipodi="http://sodipodi.sourceforge.net/DTD/sodipodi-0.dtd"
   xmlns:inkscape="http://www.inkscape.org/namespaces/inkscape"
   version="1.1"
   id="Layer_1"
   x="0px"
   y="0px"
   viewBox="0 0 379.70001 282.10001"
   xml:space="preserve"
   inkscape:version="0.91 r13725"
   sodipodi:docname="logo_club.svg"
   width="379.70001"
   height="282.10001"><metadata
     id="metadata3498"><rdf:RDF><cc:Work
         rdf:about=""><dc:format>image/svg+xml</dc:format><dc:type
           rdf:resource="http://purl.org/dc/dcmitype/StillImage" /><dc:title></dc:title></cc:Work></rdf:RDF></metadata><defs
     id="defs3496" /><sodipodi:namedview
     pagecolor="#ffffff"
     bordercolor="#666666"
     borderopacity="1"
     objecttolerance="10"
     gridtolerance="10"
     guidetolerance="10"
     inkscape:pageopacity="0"
     inkscape:pageshadow="2"
     inkscape:window-width="1284"
     inkscape:window-height="761"
     id="namedview3494"
     showgrid="false"
     fit-margin-top="20"
     fit-margin-left="20"
     fit-margin-right="20"
     fit-margin-bottom="20"
     inkscape:zoom="0.69823232"
     inkscape:cx="188.8"
     inkscape:cy="141.79999"
     inkscape:window-x="0"
     inkscape:window-y="0"
     inkscape:window-maximized="0"
     inkscape:current-layer="Layer_1" /><style
     type="text/css"
     id="style3438">
	.st0{fill-rule:evenodd;clip-rule:evenodd;}
</style><g
     id="g3440"
     transform="translate(-117.2,-255.7)"><path
       class="st0"
       d="m 367.6,378.2 c -0.7,-1.1 -1.5,-2.1 -2.4,-2.9 -0.9,-0.8 -1.8,-1.5 -2.9,-2.1 3,-0.9 5.7,-2.1 8.1,-3.7 2.4,-1.6 4.4,-3.4 6,-5.5 1.6,-2.1 2.9,-4.4 3.7,-7 0.9,-2.6 1.3,-5.3 1.3,-8.2 0,-3.6 -0.6,-6.9 -1.9,-9.9 -1.3,-3 -3.3,-5.6 -6,-7.8 -2.7,-2.2 -6.1,-3.8 -10.3,-5.1 -4.2,-1.2 -9.2,-1.8 -15.1,-1.8 l -26.4,0 0,86.1 16.1,0 0,-34.1 6.9,0 c 1.6,0 2.8,0.2 3.6,0.7 0.8,0.5 1.6,1.2 2.2,2.2 l 18.2,27.9 c 1.2,2.2 3.2,3.3 6,3.3 l 14.5,0 -21.6,-32.1 z m -29.8,-13.3 0,-28.1 10.3,0 c 5.9,0 10.3,1.2 13.2,3.5 2.9,2.3 4.3,5.6 4.3,9.9 0,2.1 -0.4,4.1 -1.1,5.9 -0.7,1.8 -1.8,3.4 -3.3,4.7 -1.5,1.3 -3.3,2.3 -5.6,3.1 -2.3,0.7 -4.9,1.1 -7.9,1.1 l -9.9,0 z"
       id="path3442"
       inkscape:connector-curvature="0"
       style="clip-rule:evenodd;fill-rule:evenodd" /><path
       class="st0"
       d="m 432.8,395.7 c -2.5,-1 -4.5,-2.5 -6.2,-4.4 -1.7,-1.9 -3,-4.1 -3.9,-6.8 -0.9,-2.7 -1.4,-5.6 -1.4,-8.9 l 0,-51.4 -16.1,0 0,51.4 c 0,5.1 0.8,9.8 2.5,14.1 1.6,4.3 4,8.1 7.1,11.2 3.1,3.1 6.8,5.6 11.3,7.4 4.4,1.8 9.4,2.6 15,2.6 5.5,0 10.5,-0.9 14.9,-2.6 4.4,-1.8 8.2,-4.2 11.3,-7.4 3.1,-3.1 5.5,-6.9 7.1,-11.2 1.7,-4.3 2.5,-9 2.5,-14.1 l 0,-51.4 -16.1,0 0,51.4 c 0,3.3 -0.4,6.2 -1.4,8.9 -0.9,2.6 -2.2,4.9 -3.9,6.8 -1.7,1.9 -3.7,3.3 -6.2,4.3 -2.5,1 -5.2,1.5 -8.4,1.5 -2.9,0.1 -5.6,-0.4 -8.1,-1.4 z"
       id="path3444"
       inkscape:connector-curvature="0"
       style="clip-rule:evenodd;fill-rule:evenodd" /><path
       class="st0"
       d="m 137.2,324.2 0,86.1 32.7,0 c 5,0 9.5,-0.6 13.4,-1.9 3.9,-1.3 7.2,-3 9.9,-5.3 2.7,-2.2 4.7,-4.9 6.1,-8 1.4,-3.1 2.1,-6.5 2.1,-10.1 0,-10.1 -5.9,-16.5 -17.8,-19.2 2.7,-0.9 5,-2 6.9,-3.3 1.9,-1.3 3.5,-2.8 4.8,-4.4 1.2,-1.6 2.2,-3.3 2.8,-5.2 0.6,-1.8 0.9,-3.8 0.9,-5.8 0,-3.5 -0.6,-6.7 -1.8,-9.5 -1.2,-2.8 -3.1,-5.2 -5.7,-7.2 -2.6,-2 -5.9,-3.5 -9.9,-4.6 -4,-1.1 -8.9,-1.6 -14.5,-1.6 l -29.9,0 z m 29.8,12.6 c 5.4,0 9.4,0.9 12,2.8 2.5,1.9 3.8,5 3.8,9.4 0,4.3 -1.4,7.4 -4.2,9.3 -2.8,2 -7,2.9 -12.5,2.9 l -12.8,0 0,-24.5 13.7,0 z m -13.7,61 0,-25.1 16.2,0 c 2.8,0 5.2,0.3 7.3,0.8 2,0.6 3.7,1.3 4.9,2.4 1.3,1 2.2,2.3 2.8,3.8 0.6,1.5 0.9,3.1 0.9,5 0,1.8 -0.3,3.5 -0.8,5 -0.5,1.6 -1.4,3 -2.6,4.2 -1.2,1.2 -2.8,2.1 -4.9,2.8 -2,0.7 -4.5,1.1 -7.5,1.1 l -16.3,0 z"
       id="path3446"
       inkscape:connector-curvature="0"
       style="clip-rule:evenodd;fill-rule:evenodd" /></g><g
     id="g3448"
     transform="translate(-117.2,-255.7)"><path
       class="st0"
       d="m 314.8,277.5 -4.7,0 -13.7,34.1 3.6,0 c 0.4,0 0.7,-0.1 1,-0.3 0.3,-0.2 0.5,-0.5 0.6,-0.7 l 3.2,-7.9 15.4,0 3.2,7.9 c 0.1,0.3 0.3,0.6 0.6,0.8 0.3,0.2 0.6,0.3 1,0.3 l 3.6,0 -13.8,-34.2 z m -8.8,21.6 5.4,-13.9 c 0.4,-0.9 0.7,-1.9 1,-3.2 0.2,0.6 0.3,1.2 0.5,1.8 0.2,0.5 0.3,1 0.5,1.5 l 5.4,13.9 -12.8,0 z"
       id="path3450"
       inkscape:connector-curvature="0"
       style="clip-rule:evenodd;fill-rule:evenodd" /><path
       class="st0"
       d="m 380.6,277.5 0,24.3 c 0,0.4 0,0.7 0,1.1 0,0.4 0.1,0.8 0.1,1.2 l -19.8,-25.8 c -0.1,-0.2 -0.2,-0.3 -0.4,-0.4 -0.1,-0.1 -0.2,-0.2 -0.3,-0.2 -0.1,-0.1 -0.2,-0.1 -0.4,-0.1 -0.1,0 -0.3,0 -0.5,0 l -2.4,0 0,34.1 4.1,0 0,-24.4 c 0,-0.3 0,-0.7 0,-1.1 0,-0.4 0,-0.8 -0.1,-1.2 l 19.8,25.8 c 0.2,0.3 0.5,0.5 0.7,0.7 0.2,0.2 0.5,0.2 0.9,0.2 l 2.3,0 0,-34.1 -4,0 z"
       id="path3452"
       inkscape:connector-curvature="0"
       style="clip-rule:evenodd;fill-rule:evenodd" /></g><g
     id="g3454"
     transform="translate(-117.2,-255.7)"><path
       class="st0"
       d="m 137.7,277.5 0,34.1 12.1,0 c 1.9,0 3.6,-0.2 5.1,-0.7 1.5,-0.5 2.8,-1.1 3.8,-2 1,-0.9 1.8,-1.9 2.3,-3.1 0.5,-1.2 0.8,-2.5 0.8,-4 0,-2.1 -0.6,-3.9 -1.9,-5.2 -1.3,-1.3 -3.2,-2.2 -5.7,-2.7 1.1,-0.3 2,-0.8 2.8,-1.3 0.8,-0.5 1.5,-1.1 2,-1.8 0.5,-0.6 0.9,-1.4 1.2,-2.1 0.3,-0.8 0.4,-1.6 0.4,-2.4 0,-1.4 -0.2,-2.6 -0.7,-3.7 -0.5,-1.1 -1.2,-2 -2.2,-2.8 -1,-0.8 -2.2,-1.3 -3.8,-1.7 -1.5,-0.4 -3.3,-0.6 -5.4,-0.6 l -10.8,0 z m 10.9,3.6 c 2.6,0 4.4,0.5 5.6,1.4 1.2,0.9 1.8,2.3 1.8,4.3 0,0.8 -0.2,1.6 -0.5,2.3 -0.3,0.7 -0.8,1.3 -1.4,1.8 -0.6,0.5 -1.4,0.9 -2.4,1.2 -1,0.3 -2.1,0.4 -3.4,0.4 l -6.1,0 0,-11.4 6.4,0 z m -6.3,27 0,-12 7.4,0 c 2.5,0 4.4,0.5 5.7,1.5 1.2,1 1.9,2.4 1.9,4.2 0,0.9 -0.2,1.8 -0.4,2.5 -0.3,0.8 -0.7,1.4 -1.3,2 -0.6,0.6 -1.4,1 -2.4,1.3 -1,0.3 -2.1,0.4 -3.4,0.4 l -7.5,0 z"
       id="path3456"
       inkscape:connector-curvature="0"
       style="clip-rule:evenodd;fill-rule:evenodd" /><path
       class="st0"
       d="m 208,298 c -0.4,-0.6 -0.9,-1.1 -1.5,-1.5 1.3,-0.3 2.5,-0.7 3.5,-1.3 1,-0.6 1.9,-1.3 2.6,-2.1 0.7,-0.8 1.3,-1.8 1.7,-2.8 0.4,-1 0.6,-2.1 0.6,-3.3 0,-1.4 -0.2,-2.7 -0.7,-3.9 -0.5,-1.2 -1.3,-2.1 -2.3,-3 -1,-0.8 -2.3,-1.4 -3.9,-1.9 -1.6,-0.4 -3.4,-0.7 -5.6,-0.7 l -9.7,0 0,34.1 4.6,0 0,-14.4 3.5,0 c 0.7,0 1.1,0.1 1.4,0.2 0.3,0.2 0.6,0.5 0.9,0.8 l 8.9,12.3 c 0.4,0.7 1,1 1.9,1 l 4.1,0 -10,-13.5 z m -10.7,-4.3 0,-12.6 5.1,0 c 2.7,0 4.7,0.5 6,1.5 1.3,1 2,2.5 2,4.5 0,1 -0.2,1.9 -0.5,2.7 -0.4,0.8 -0.9,1.5 -1.6,2.1 -0.7,0.6 -1.6,1 -2.6,1.4 -1,0.3 -2.2,0.5 -3.6,0.5 l -4.8,0 z"
       id="path3458"
       inkscape:connector-curvature="0"
       style="clip-rule:evenodd;fill-rule:evenodd" /></g><g
     id="g3460"
     transform="translate(-117.2,-255.7)"><polygon
       class="st0"
       points="293,445.1 293,443.9 284.3,443.9 284.3,436.1 294.3,436.1 294.3,434.9 282.9,434.9 282.9,454 284.3,454 284.3,445.1 "
       id="polygon3462"
       style="clip-rule:evenodd;fill-rule:evenodd" /><polygon
       class="st0"
       points="322.8,436.1 322.8,434.9 311.3,434.9 311.3,454 322.8,454 322.8,452.8 312.7,452.8 312.7,445.1 321.1,445.1 321.1,443.9 312.7,443.9 312.7,436.1 "
       id="polygon3464"
       style="clip-rule:evenodd;fill-rule:evenodd" /><path
       class="st0"
       d="m 353.8,434.9 0,16 c 0,0.2 0,0.5 0.1,0.8 l -12.3,-16.5 c -0.1,-0.1 -0.2,-0.2 -0.2,-0.2 -0.1,0 -0.2,0 -0.3,0 l -0.7,0 0,19 1.2,0 0,-16 c 0,-0.2 0,-0.5 0,-0.8 l 12.4,16.5 c 0.1,0.1 0.1,0.2 0.2,0.2 0.1,0 0.2,0.1 0.3,0.1 l 0.6,0 0,-19.1 -1.3,0 z"
       id="path3466"
       inkscape:connector-curvature="0"
       style="clip-rule:evenodd;fill-rule:evenodd" /><path
       class="st0"
       d="m 387.7,450.7 c 0,0 -0.1,0.1 -0.1,0.1 -0.4,0.4 -0.8,0.7 -1.1,0.9 -0.4,0.3 -0.8,0.5 -1.2,0.6 -0.5,0.2 -0.9,0.3 -1.5,0.4 -0.5,0.1 -1.1,0.1 -1.8,0.1 -1.1,0 -2.1,-0.2 -3,-0.6 -0.9,-0.4 -1.7,-0.9 -2.4,-1.6 -0.7,-0.7 -1.2,-1.6 -1.6,-2.6 -0.4,-1 -0.6,-2.2 -0.6,-3.5 0,-1.3 0.2,-2.4 0.6,-3.5 0.4,-1 0.9,-1.9 1.6,-2.6 0.7,-0.7 1.5,-1.3 2.5,-1.7 1,-0.4 2,-0.6 3.2,-0.6 0.9,0 1.7,0.1 2.3,0.3 0.6,0.2 1.2,0.4 1.6,0.6 0.4,0.2 0.8,0.4 1,0.6 0.2,0.2 0.4,0.3 0.5,0.3 0.2,0 0.3,0 0.3,-0.1 l 0.4,-0.6 c -0.8,-0.7 -1.7,-1.3 -2.7,-1.7 -1,-0.4 -2.2,-0.6 -3.5,-0.6 -1.4,0 -2.6,0.2 -3.7,0.7 -1.1,0.5 -2.1,1.1 -2.9,2 -0.8,0.8 -1.4,1.9 -1.9,3 -0.5,1.2 -0.7,2.5 -0.7,3.9 0,1.4 0.2,2.8 0.6,3.9 0.4,1.2 1,2.2 1.8,3 0.8,0.8 1.7,1.5 2.8,1.9 1.1,0.5 2.3,0.7 3.6,0.7 0.8,0 1.5,-0.1 2.2,-0.2 0.6,-0.1 1.3,-0.3 1.8,-0.6 0.6,-0.2 1.1,-0.5 1.5,-0.8 0.5,-0.3 0.9,-0.7 1.3,-1.1 l -0.5,-0.6 c -0.1,-0.1 -0.1,-0.1 -0.2,-0.1 -0.1,0 -0.1,0.1 -0.2,0.1 z"
       id="path3468"
       inkscape:connector-curvature="0"
       style="clip-rule:evenodd;fill-rule:evenodd" /><rect
       x="405.5"
       y="434.89999"
       class="st0"
       width="1.4"
       height="19.1"
       id="rect3470"
       style="clip-rule:evenodd;fill-rule:evenodd" /><path
       class="st0"
       d="m 439.6,434.9 0,16 c 0,0.2 0,0.5 0.1,0.8 l -12.4,-16.5 c -0.1,-0.1 -0.2,-0.2 -0.2,-0.2 -0.1,0 -0.2,0 -0.3,0 l -0.7,0 0,19 1.2,0 0,-16 c 0,-0.2 0,-0.5 0,-0.8 l 12.4,16.5 c 0.1,0.1 0.1,0.2 0.2,0.2 0.1,0 0.2,0.1 0.3,0.1 l 0.6,0 0,-19.1 -1.2,0 z"
       id="path3472"
       inkscape:connector-curvature="0"
       style="clip-rule:evenodd;fill-rule:evenodd" /><path
       class="st0"
       d="m 469.9,445.1 0,0.9 c 0,0.1 0,0.2 0.1,0.2 0.1,0.1 0.1,0.1 0.2,0.1 l 3.6,0 0,5.1 c -0.4,0.2 -0.8,0.5 -1.2,0.6 -0.4,0.1 -0.8,0.4 -1.3,0.5 -0.4,0.1 -0.9,0.2 -1.4,0.3 -0.5,0.1 -1,0.1 -1.6,0.1 -1.3,0 -2.5,-0.2 -3.5,-0.6 -1,-0.4 -1.9,-0.9 -2.6,-1.7 -0.7,-0.7 -1.3,-1.6 -1.7,-2.7 -0.4,-1 -0.6,-2.2 -0.6,-3.5 0,-1.3 0.2,-2.4 0.6,-3.5 0.4,-1 0.9,-1.9 1.6,-2.6 0.7,-0.7 1.5,-1.3 2.5,-1.6 1,-0.4 2.1,-0.6 3.4,-0.6 0.9,0 1.7,0.1 2.4,0.2 0.6,0.2 1.2,0.4 1.6,0.6 0.4,0.2 0.8,0.4 1,0.6 0.2,0.2 0.4,0.3 0.6,0.4 0.2,0.1 0.4,0.1 0.6,-0.2 l 0.4,-0.6 c -0.4,-0.4 -0.9,-0.7 -1.3,-1 -0.4,-0.3 -0.9,-0.5 -1.5,-0.7 -0.5,-0.2 -1.1,-0.3 -1.7,-0.4 -0.6,-0.1 -1.3,-0.1 -2,-0.1 -1.5,0 -2.8,0.2 -4,0.7 -1.2,0.5 -2.2,1.1 -3,1.9 -0.8,0.8 -1.5,1.8 -1.9,3 -0.4,1.2 -0.7,2.5 -0.7,3.9 0,1.4 0.2,2.8 0.7,3.9 0.4,1.2 1.1,2.2 2,3 0.8,0.8 1.9,1.5 3.1,1.9 1.2,0.5 2.5,0.7 4.1,0.7 1.3,0 2.5,-0.2 3.6,-0.6 1.1,-0.4 2.1,-0.9 3,-1.6 l 0,-6.8 -5.1,0 z"
       id="path3474"
       inkscape:connector-curvature="0"
       style="clip-rule:evenodd;fill-rule:evenodd" /><path
       class="st0"
       d="m 296.5,483 c -0.1,0 -0.1,0 -0.1,0.1 -0.4,0.4 -0.8,0.6 -1.1,0.9 -0.4,0.3 -0.8,0.5 -1.3,0.6 -0.4,0.2 -0.9,0.3 -1.5,0.4 -0.5,0.1 -1.1,0.1 -1.8,0.1 -1.1,0 -2.1,-0.2 -3,-0.6 -0.9,-0.4 -1.7,-0.9 -2.4,-1.6 -0.7,-0.7 -1.2,-1.6 -1.6,-2.6 -0.4,-1 -0.6,-2.2 -0.6,-3.5 0,-1.3 0.2,-2.5 0.6,-3.5 0.4,-1 0.9,-1.9 1.6,-2.6 0.7,-0.7 1.5,-1.3 2.5,-1.7 1,-0.4 2,-0.6 3.2,-0.6 0.9,0 1.7,0.1 2.3,0.3 0.6,0.2 1.2,0.4 1.6,0.6 0.4,0.2 0.8,0.4 1,0.6 0.2,0.2 0.4,0.3 0.5,0.3 0.1,0 0.3,0 0.3,-0.1 l 0.4,-0.6 c -0.8,-0.7 -1.7,-1.3 -2.8,-1.7 -1,-0.4 -2.2,-0.6 -3.5,-0.6 -1.4,0 -2.6,0.2 -3.7,0.7 -1.1,0.5 -2.1,1.1 -2.9,2 -0.8,0.8 -1.4,1.9 -1.9,3 -0.4,1.2 -0.7,2.5 -0.7,3.9 0,1.4 0.2,2.8 0.6,3.9 0.4,1.2 1.1,2.2 1.8,3 0.8,0.8 1.7,1.5 2.8,1.9 1.1,0.5 2.3,0.7 3.6,0.7 0.8,0 1.5,0 2.2,-0.2 0.6,-0.1 1.3,-0.3 1.8,-0.6 0.5,-0.2 1.1,-0.5 1.5,-0.9 0.5,-0.3 0.9,-0.7 1.3,-1.1 l -0.5,-0.6 c -0.1,-0.1 -0.1,-0.1 -0.2,-0.1 0.1,0.2 0.1,0.2 0,0.2 z"
       id="path3476"
       inkscape:connector-curvature="0"
       style="clip-rule:evenodd;fill-rule:evenodd" /><polygon
       class="st0"
       points="315.7,485.1 315.7,467.2 314.3,467.2 314.3,486.3 324.7,486.3 324.7,485.1 "
       id="polygon3478"
       style="clip-rule:evenodd;fill-rule:evenodd" /><path
       class="st0"
       d="m 346,484.7 c -0.7,-0.3 -1.3,-0.8 -1.8,-1.3 -0.5,-0.6 -0.9,-1.2 -1.1,-2 -0.3,-0.8 -0.4,-1.6 -0.4,-2.5 l 0,-11.7 -1.4,0 0,11.7 c 0,1 0.2,2 0.5,2.9 0.3,0.9 0.8,1.7 1.4,2.4 0.6,0.7 1.4,1.2 2.3,1.6 0.9,0.4 1.9,0.6 3,0.6 1.1,0 2.1,-0.2 3,-0.6 0.9,-0.4 1.6,-0.9 2.3,-1.6 0.6,-0.7 1.1,-1.5 1.4,-2.4 0.3,-0.9 0.5,-1.9 0.5,-2.9 l 0,-11.7 -1.4,0 0,11.7 c 0,0.9 -0.1,1.7 -0.4,2.5 -0.3,0.8 -0.7,1.4 -1.2,2 -0.5,0.6 -1.1,1 -1.8,1.3 -0.7,0.3 -1.5,0.5 -2.5,0.5 -0.8,-0.1 -1.6,-0.2 -2.4,-0.5 z"
       id="path3480"
       inkscape:connector-curvature="0"
       style="clip-rule:evenodd;fill-rule:evenodd" /><path
       class="st0"
       d="m 374.7,467.2 0,19.1 6.2,0 c 1,0 1.9,-0.1 2.7,-0.4 0.8,-0.2 1.5,-0.6 2,-1 0.5,-0.4 1,-1 1.2,-1.6 0.3,-0.6 0.4,-1.4 0.4,-2.2 0,-1.2 -0.4,-2.3 -1.2,-3 -0.8,-0.8 -2,-1.3 -3.4,-1.5 0.6,-0.1 1.2,-0.4 1.6,-0.7 0.4,-0.3 0.9,-0.6 1.2,-1 0.3,-0.4 0.6,-0.8 0.8,-1.3 0.2,-0.5 0.3,-1 0.3,-1.5 0,-0.8 -0.1,-1.5 -0.4,-2.1 -0.2,-0.6 -0.6,-1.1 -1.1,-1.6 -0.5,-0.4 -1.2,-0.7 -2,-1 -0.8,-0.2 -1.7,-0.3 -2.8,-0.3 l -5.5,0 z m 5.5,1.2 c 1.7,0 2.9,0.3 3.8,1 0.8,0.6 1.2,1.6 1.2,2.9 0,0.5 -0.1,1 -0.3,1.4 -0.2,0.5 -0.5,0.9 -0.9,1.2 -0.4,0.4 -0.9,0.6 -1.5,0.9 -0.6,0.2 -1.4,0.3 -2.2,0.3 l -4.1,0 0,-7.8 4,0 z m -4.1,16.7 0,-7.8 4.8,0 c 0.8,0 1.5,0.1 2.1,0.3 0.6,0.2 1.2,0.4 1.6,0.8 0.4,0.3 0.8,0.7 1,1.2 0.2,0.5 0.4,1 0.4,1.6 0,1.3 -0.4,2.3 -1.3,3 -0.9,0.7 -2.1,1 -3.8,1 l -4.8,0 z"
       id="path3482"
       inkscape:connector-curvature="0"
       style="clip-rule:evenodd;fill-rule:evenodd" /></g><g
     id="g3484"
     transform="translate(-117.2,-255.7)"><path
       class="st0"
       d="m 250.2,284.7 c 0,1.2 0.2,2.3 0.6,3.3 1.3,-3.3 4.6,-5.7 8.4,-5.7 3.8,0 7,2.4 8.4,5.7 0.4,-1 0.6,-2.1 0.6,-3.3 0,-5 -4,-9 -9,-9 -5,0.1 -9,4.1 -9,9 z"
       id="path3486"
       inkscape:connector-curvature="0"
       style="clip-rule:evenodd;fill-rule:evenodd" /><path
       class="st0"
       d="m 265.2,291.3 c 0,-3.3 -2.7,-6 -6,-6 -3.3,0 -6,2.7 -6,6 l 0,27.3 c 1.9,-0.3 3.9,-0.4 6,-0.4 2.1,0 4,0.1 6,0.4 l 0,-27.3 z"
       id="path3488"
       inkscape:connector-curvature="0"
       style="clip-rule:evenodd;fill-rule:evenodd" /></g><path
     class="st0"
     d="m 133,111 c 0,3.9 2.5,7.2 6,8.5 l 0,6.2 c -6.8,-1.4 -12,-7.4 -12,-14.7 0,-8.3 6.7,-15 14.9,-15 8.2,0 15,6.7 15,15 0,7 -4.8,12.9 -11.4,14.5 l 0,-6.3 c 3.2,-1.4 5.4,-4.6 5.4,-8.2 0,-5 -4,-9 -9,-9 -4.9,0 -8.9,4 -8.9,9 z m -34.7,0 c 0,23.1 17.9,42 40.7,43.6 l 0,104.2 3.3,3.3 3.3,-3.3 0,-104.3 C 168,152.7 185.7,133.9 185.7,111 185.7,86.9 166.2,67.3 142.1,67.3 118,67.3 98.3,86.9 98.3,111 Z m 6,0 c 0,-20.8 16.9,-37.7 37.7,-37.7 l 0,19.7 c -9.9,0 -17.9,8 -17.9,18 0,0.2 0,0.4 0,0.5 l -19.7,0 -0.1,-0.5 z m 75.4,0 c 0,19.6 -15,35.7 -34.1,37.5 l 0,-19.9 c 8.2,-1.7 14.4,-8.9 14.4,-17.6 l 19.7,0 z"
     id="path3490"
     inkscape:connector-curvature="0"
     style="clip-rule:evenodd;fill-rule:evenodd" /><path
     class="st0"
     d="m 287.9,49.4 0,4.6 0,0.8 71.8,0 0,-5.4 -0.1,0 0.1,-29.2 -13.4,12 c 2,1.6 3.3,4 3.3,6.8 0,4.8 -3.9,8.7 -8.7,8.7 -4.8,0 -8.7,-3.9 -8.7,-8.7 0,-2.8 1.3,-5.2 3.3,-6.8 L 324,20.3 311.4,32.5 c 1.7,1.6 2.8,3.9 2.8,6.4 0,4.8 -3.9,8.7 -8.7,8.7 -4.8,0 -8.7,-3.9 -8.7,-8.7 0,-3 1.5,-5.6 3.8,-7.2 l -12.7,-11.4 0,29.1 z"
     id="path3492"
     inkscape:connector-curvature="0"
     style="clip-rule:evenodd;fill-rule:evenodd" /></svg>